<svg xmlns="http://www.w3.org/2000/svg" viewBox="0 0 512 512" width="100%" height="100%">
  <defs>
    <linearGradient id="brand-grad" x1="0%" y1="0%" x2="100%" y2="100%">
      <stop offset="0%" stop-color="#818cf8" />
      <stop offset="100%" stop-color="#4f46e5" />
    </linearGradient>
  </defs>
  <rect width="512" height="512" rx="128" fill="#020617" />
  <path d="M128 160h256v192H128z" fill="url(#brand-grad)" opacity="0.15" />
  <g fill="none" stroke="url(#brand-grad)" stroke-width="28" stroke-linecap="round" stroke-linejoin="round">
    <path d="M384 192V144a32 32 0 0 0-32-32H160a32 32 0 0 0-32 32v224a32 32 0 0 0 32 32h192a32 32 0 0 0 32-32v-48" />
    <path d="M320 256h64a32 32 0 0 1 32 32v32a32 32 0 0 1-32 32h-64a32 32 0 0 1-32-32v-32a32 32 0 0 1 32-32z" fill="#020617" />
    <circle cx="352" cy="288" r="12" fill="url(#brand-grad)" />
  </g>
</svg>
